# xmcd CD database file
#
# Track frame offsets:
#	183
#	61720
#	127130
#	192408
#	244938
#
# Disc length: 3382 seconds
#
# Revision: 0
# Processed by: cddbd v1.5.1PL2 Copyright (c) Steve Scherf et al.
# Submitted via: CDex 1.51
#
DISCID=450d3405
DTITLE=Bobby Hutcherson - Blow Up
DYEAR=1969
DGENRE=Jazz
TTITLE0=Spiral
TTITLE1=Blow Up
TTITLE2=Herzog
TTITLE3=Maiden Voyage
TTITLE4=Man Of Mercury
EXTD=YEAR: 1969
EXTT0=
EXTT1=
EXTT2=
EXTT3=
EXTT4=
PLAYORDER=
